<svg width="80" height="80" viewBox="0 0 80 80" fill="none" xmlns="http://www.w3.org/2000/svg">
<circle cx="40" cy="40" r="40" fill="white"/>
<path fill-rule="evenodd" clip-rule="evenodd" d="M52.9884 25.0719C53.7434 24.0971 53.7434 22.7352 52.9884 21.7604C51.9059 20.3627 49.7953 20.3627 48.7127 21.7604L36.7542 37.2011C35.9993 38.1759 35.9993 39.5378 36.7542 40.5126C37.8368 41.9103 39.9474 41.9103 41.03 40.5126L52.9884 25.0719ZM12.8999 41.8301C12.1372 42.8079 12.1349 44.1784 12.8942 45.1588L23.0243 58.2387C24.1072 59.637 26.2186 59.637 27.3015 58.2387C28.0561 57.2644 28.0567 55.9031 27.3029 54.928L17.1841 41.8393C16.1013 40.4387 13.9887 40.4342 12.8999 41.8301Z" fill="black"/>
<path fill-rule="evenodd" clip-rule="evenodd" d="M35.9636 36.5888L47.9221 21.148C49.405 19.2334 52.2962 19.2334 53.7791 21.148C54.8132 22.4833 54.8132 24.3489 53.7791 25.6841L41.8206 41.1248C40.3377 43.0395 37.4465 43.0395 35.9636 41.1248C34.9295 39.7896 34.9295 37.924 35.9636 36.5888ZM22.2337 58.851L12.1036 45.771C11.0643 44.4292 11.0675 42.5533 12.1114 41.215C13.6016 39.3044 16.4932 39.3106 17.9752 41.2276L28.094 54.3164C29.1265 55.6518 29.1257 57.5164 28.0921 58.851C26.6088 60.7661 23.7169 60.7661 22.2337 58.851ZM52.9884 21.7604C53.7434 22.7351 53.7434 24.0971 52.9884 25.0718L41.03 40.5125C39.9474 41.9103 37.8368 41.9103 36.7542 40.5125C35.9993 39.5378 35.9993 38.1758 36.7542 37.2011L48.7127 21.7604C49.7953 20.3626 51.9059 20.3626 52.9884 21.7604ZM12.8942 45.1587C12.1349 44.1783 12.1372 42.8078 12.8999 41.83C13.9887 40.4341 16.1013 40.4386 17.1841 41.8392L27.3029 54.928C28.0567 55.903 28.0561 57.2643 27.3015 58.2387C26.2186 59.6369 24.1072 59.6369 23.0243 58.2387L12.8942 45.1587Z" fill="black"/>
<path fill-rule="evenodd" clip-rule="evenodd" d="M66.7028 21.7531C65.614 20.3571 63.5017 20.3607 62.4176 21.7604L42.0507 48.058C40.4506 50.1242 37.3312 50.126 35.7287 48.0617L30.8929 41.8327C29.8087 40.4362 27.6985 40.4374 26.6159 41.8352C25.8604 42.8107 25.8604 44.1737 26.6159 45.1491L35.7296 56.9167C37.331 58.9843 40.4532 58.9843 42.0545 56.9167L66.7085 25.0836C67.4682 24.1027 67.4659 22.7314 66.7028 21.7531Z" fill="#3894D3"/>
<path fill-rule="evenodd" clip-rule="evenodd" d="M41.2601 47.4457L61.627 21.148C63.1105 19.2326 66.0013 19.2276 67.4913 21.138C68.5356 22.4768 68.5388 24.3534 67.4991 25.6959L42.8451 57.5289C40.8434 60.1135 36.9407 60.1135 34.939 57.5289L25.8253 45.7614C24.7907 44.4255 24.7907 42.5588 25.8253 41.2228C27.3079 39.3085 30.198 39.3069 31.6828 41.2194L36.5186 47.4484C37.7205 48.9966 40.06 48.9953 41.2601 47.4457ZM62.4176 21.7604C63.5017 20.3607 65.614 20.3571 66.7028 21.753C67.4659 22.7313 67.4682 24.1026 66.7085 25.0835L42.0545 56.9166C40.4532 58.9843 37.331 58.9843 35.7296 56.9166L26.6159 45.1491C25.8604 44.1736 25.8604 42.8106 26.6159 41.8352C27.6985 40.4374 29.8087 40.4362 30.8929 41.8327L35.7287 48.0616C37.3312 50.1259 40.4506 50.1241 42.0507 48.058L62.4176 21.7604Z" fill="#3894D3"/>
</svg>
